# xmcd
#
# Track frame offsets:
#	150
#	16332
#	29896
#	47710
#	64879
#	79397
#	98180
#	114996
#	132130
#	147967
#
# Disc length: 2190 seconds
#
# Revision: 0
# Processed by: cddbd v1.5.1PL2 Copyright (c) Steve Scherf et al.
# Submitted via: EasyCDDAExtractor 4.6.9.1
#
DISCID=8b088c0a
DTITLE=Rodney Atkins - If You're Going Through Hell
DYEAR=2006
DGENRE=Country
TTITLE0=These Are My People
TTITLE1=About The South
TTITLE2=Watching You
TTITLE3=Cleaning This Gun (Come On In, Boy)
TTITLE4=In The Middle
TTITLE5=A Man On A Tractor
TTITLE6=Wasted Whiskey
TTITLE7=Invisibly Shaken
TTITLE8=Angels Hands
TTITLE9=If You're Going Through Hell (Before The Devil Even Knows)
EXTD=
EXTT0=
EXTT1=
EXTT2=
EXTT3=
EXTT4=
EXTT5=
EXTT6=
EXTT7=
EXTT8=
EXTT9=
PLAYORDER=
